# xmcd
#
# Track frame offsets: 
#        150
#        5342
#        26007
#        44266
#        60840
#        78183
#        95069
#        112117
#        133271
#        150058
#        164604
#        180240
#        187249
#        219184
#
# Disc length: 3462 seconds
#
# Revision: 6
# Processed by: cddbd v1.5.2PL0 Copyright (c) Steve Scherf et al.
# Submitted via: ExactAudioCopy v1.0b3
#
DISCID=ac0d840e
DTITLE=Lordi - The Arockalypse (Special Edition)
DYEAR=2006
DGENRE=Metal
TTITLE0=SCG3 Special Report
TTITLE1=Bringing Back The Balls To Rock
TTITLE2=The Deadite Girls Gone Wild
TTITLE3=The Kids Who wanna Play With The Dead
TTITLE4=It Snows In Hell
TTITLE5=Who's Your Daddy
TTITLE6=Hard Rock Hallelujah
TTITLE7=They Only Come Out At Night
TTITLE8=Chainsaw Buffet
TTITLE9=Good To Be Bad
TTITLE10=The Night Of The Loving Dead
TTITLE11=Supermonstars
TTITLE12=Would You Love A Monsterman? '06
TTITLE13=Daten-CD
EXTD=
EXTT0=
EXTT1=
EXTT2=
EXTT3=
EXTT4=
EXTT5=
EXTT6=
EXTT7=
EXTT8=
EXTT9=
EXTT10=
EXTT11=
EXTT12=
EXTT13=
PLAYORDER=
